<?xml version="1.0" encoding="utf-8" standalone="no"?>
<!DOCTYPE svg PUBLIC "-//W3C//DTD SVG 1.1//EN"
  "http://www.w3.org/Graphics/SVG/1.1/DTD/svg11.dtd">
<!-- Created with matplotlib (http://matplotlib.org/) -->
<svg height="277pt" version="1.1" viewBox="0 0 277 277" width="277pt" xmlns="http://www.w3.org/2000/svg" xmlns:xlink="http://www.w3.org/1999/xlink">
 <defs>
  <style type="text/css">
*{stroke-linecap:butt;stroke-linejoin:round;stroke-miterlimit:100000;}
  </style>
 </defs>
 <g id="figure_1">
  <g id="patch_1">
   <path d="M 0 277.158125 
L 277.450312 277.158125 
L 277.450312 0 
L 0 0 
z
" style="fill:#ffffff;"/>
  </g>
  <g id="axes_1">
   <g id="patch_2">
    <path d="M 21.170312 256.28 
L 270.250312 256.28 
L 270.250312 7.2 
L 21.170312 7.2 
z
" style="fill:#ffffff;"/>
   </g>
   <g id="LineCollection_1">
    <path clip-path="url(#p16e2f8351d)" d="M 198.249161 251.49 
L 194.723452 241.845705 
L 186.154662 219.342349 
L 180.269037 204.581309 
L 170.624742 181.813194 
L 160.476649 159.869195 
L 156.158299 151.090958 
L 154.860537 148.617517 
L 154.015917 147.010134 
L 151.336151 141.836709 
L 150.575984 140.580604 
L 149.728769 138.882537 
L 148.78247 137.365839 
L 147.933584 135.758456 
L 146.899585 134.151074 
L 146.514004 132.952279 
L 144.906621 132.938795 
L 144.487284 134.151074 
L 143.299239 135.831724 
L 142.475763 137.365839 
L 141.438524 138.973221 
L 137.342195 145.402752 
L 135.262326 148.462307 
L 134.06464 150.224899 
L 126.792734 159.869195 
L 122.616077 164.691342 
L 119.1885 168.221123 
L 115.973735 171.170982 
L 112.75897 173.726801 
L 111.151588 174.856399 
L 107.936823 176.789814 
L 106.32944 177.592298 
L 103.114675 178.81225 
L 101.507292 179.231097 
L 99.89991 179.5025 
L 98.292527 179.627189 
L 96.685145 179.594377 
L 94.082128 179.157785 
L 93.47038 179.008104 
L 91.862997 178.418402 
L 90.143723 177.550403 
L 87.865537 175.94302 
L 87.040849 175.256446 
L 85.433467 173.633341 
L 83.458483 171.120872 
L 82.218702 169.243267 
L 80.60954 166.298725 
L 79.003937 162.645279 
L 77.396554 157.982762 
L 76.209009 153.439664 
L 75.531792 150.224899 
L 74.765249 145.402752 
L 74.181789 139.990781 
L 73.944529 135.758456 
L 73.874509 130.936309 
L 74.01455 126.114161 
L 74.381978 121.292013 
L 74.995212 116.469866 
L 75.843371 111.647718 
L 77.024663 106.82557 
L 78.012737 103.610805 
L 79.184204 100.39604 
L 80.611319 97.177536 
L 82.390727 93.96651 
L 83.826084 91.827882 
L 85.433467 89.846659 
L 87.040849 88.223554 
L 88.648232 86.908639 
L 90.255615 85.858872 
L 91.862997 85.061598 
L 94.082128 84.322215 
L 95.077762 84.086726 
L 96.685145 83.885623 
L 98.292527 83.852811 
L 99.89991 83.9775 
L 101.796593 84.322215 
L 103.114675 84.66775 
L 104.722057 85.218579 
L 106.416193 85.929597 
L 109.544205 87.595664 
L 112.75897 89.753199 
L 116.032345 92.359128 
L 119.514577 95.573893 
L 122.616077 98.788658 
L 125.618031 102.208016 
L 129.349392 106.82557 
L 134.06464 113.255101 
L 139.435883 121.292013 
L 140.444542 122.899396 
L 144.487284 129.328926 
L 144.906621 130.541205 
L 146.514004 130.527721 
L 146.899585 129.328926 
L 148.121386 127.526914 
L 148.78247 126.114161 
L 149.765356 124.506779 
L 150.575984 122.899396 
L 151.490909 121.292013 
L 160.980447 102.626643 
L 163.544781 97.181275 
L 165.808588 92.359128 
L 175.44689 70.502082 
L 188.30595 38.630036 
L 198.249161 11.99 
L 198.249161 11.99 
" style="fill:none;stroke:#0000ff;"/>
   </g>
   <g id="LineCollection_2">
    <path clip-path="url(#p16e2f8351d)" d="M 145.710312 11.99 
L 145.710312 251.49 
L 145.710312 251.49 
" style="fill:none;stroke:#000000;"/>
   </g>
   <g id="LineCollection_3">
    <path clip-path="url(#p16e2f8351d)" d="M 25.960313 131.74 
L 265.460312 131.74 
L 265.460312 131.74 
" style="fill:none;stroke:#000000;"/>
   </g>
   <g id="patch_3">
    <path d="M 21.170313 7.2 
L 270.250312 7.2 
" style="fill:none;stroke:#000000;stroke-linecap:square;stroke-linejoin:miter;stroke-width:0.8;"/>
   </g>
   <g id="patch_4">
    <path d="M 270.250312 256.28 
L 270.250312 7.2 
" style="fill:none;stroke:#000000;stroke-linecap:square;stroke-linejoin:miter;stroke-width:0.8;"/>
   </g>
   <g id="patch_5">
    <path d="M 21.170313 256.28 
L 270.250312 256.28 
" style="fill:none;stroke:#000000;stroke-linecap:square;stroke-linejoin:miter;stroke-width:0.8;"/>
   </g>
   <g id="patch_6">
    <path d="M 21.170312 256.28 
L 21.170312 7.2 
" style="fill:none;stroke:#000000;stroke-linecap:square;stroke-linejoin:miter;stroke-width:0.8;"/>
   </g>
   <g id="matplotlib.axis_1">
    <g id="xtick_1">
     <g id="line2d_1">
      <defs>
       <path d="M 0 0 
L 0 -4 
" id="m833504efca" style="stroke:#000000;stroke-width:0.5;"/>
      </defs>
      <g>
       <use style="stroke:#000000;stroke-width:0.5;" x="49.9103125" xlink:href="#m833504efca" y="256.28"/>
      </g>
     </g>
     <g id="line2d_2">
      <defs>
       <path d="M 0 0 
L 0 4 
" id="m53f567e5bd" style="stroke:#000000;stroke-width:0.5;"/>
      </defs>
      <g>
       <use style="stroke:#000000;stroke-width:0.5;" x="49.9103125" xlink:href="#m53f567e5bd" y="7.2"/>
      </g>
     </g>
     <g id="text_1">
      <!-- -4 -->
      <defs>
       <path d="M 4.890625 31.390625 
L 31.203125 31.390625 
L 31.203125 23.390625 
L 4.890625 23.390625 
z
" id="BitstreamVeraSans-Roman-2d"/>
       <path d="M 37.796875 64.3125 
L 12.890625 25.390625 
L 37.796875 25.390625 
z
M 35.203125 72.90625 
L 47.609375 72.90625 
L 47.609375 25.390625 
L 58.015625 25.390625 
L 58.015625 17.1875 
L 47.609375 17.1875 
L 47.609375 0 
L 37.796875 0 
L 37.796875 17.1875 
L 4.890625 17.1875 
L 4.890625 26.703125 
z
" id="BitstreamVeraSans-Roman-34"/>
      </defs>
      <g transform="translate(44.92515625 267.8784375)scale(0.1 -0.1)">
       <use xlink:href="#BitstreamVeraSans-Roman-2d"/>
       <use x="36.083984375" xlink:href="#BitstreamVeraSans-Roman-34"/>
      </g>
     </g>
    </g>
    <g id="xtick_2">
     <g id="line2d_3">
      <g>
       <use style="stroke:#000000;stroke-width:0.5;" x="97.8103125" xlink:href="#m833504efca" y="256.28"/>
      </g>
     </g>
     <g id="line2d_4">
      <g>
       <use style="stroke:#000000;stroke-width:0.5;" x="97.8103125" xlink:href="#m53f567e5bd" y="7.2"/>
      </g>
     </g>
     <g id="text_2">
      <!-- -2 -->
      <defs>
       <path d="M 19.1875 8.296875 
L 53.609375 8.296875 
L 53.609375 0 
L 7.328125 0 
L 7.328125 8.296875 
Q 12.9375 14.109375 22.625 23.890625 
Q 32.328125 33.6875 34.8125 36.53125 
Q 39.546875 41.84375 41.421875 45.53125 
Q 43.3125 49.21875 43.3125 52.78125 
Q 43.3125 58.59375 39.234375 62.25 
Q 35.15625 65.921875 28.609375 65.921875 
Q 23.96875 65.921875 18.8125 64.3125 
Q 13.671875 62.703125 7.8125 59.421875 
L 7.8125 69.390625 
Q 13.765625 71.78125 18.9375 73 
Q 24.125 74.21875 28.421875 74.21875 
Q 39.75 74.21875 46.484375 68.546875 
Q 53.21875 62.890625 53.21875 53.421875 
Q 53.21875 48.921875 51.53125 44.890625 
Q 49.859375 40.875 45.40625 35.40625 
Q 44.1875 33.984375 37.640625 27.21875 
Q 31.109375 20.453125 19.1875 8.296875 
" id="BitstreamVeraSans-Roman-32"/>
      </defs>
      <g transform="translate(92.82515625 267.8784375)scale(0.1 -0.1)">
       <use xlink:href="#BitstreamVeraSans-Roman-2d"/>
       <use x="36.083984375" xlink:href="#BitstreamVeraSans-Roman-32"/>
      </g>
     </g>
    </g>
    <g id="xtick_3">
     <g id="line2d_5">
      <g>
       <use style="stroke:#000000;stroke-width:0.5;" x="145.7103125" xlink:href="#m833504efca" y="256.28"/>
      </g>
     </g>
     <g id="line2d_6">
      <g>
       <use style="stroke:#000000;stroke-width:0.5;" x="145.7103125" xlink:href="#m53f567e5bd" y="7.2"/>
      </g>
     </g>
     <g id="text_3">
      <!-- 0 -->
      <defs>
       <path d="M 31.78125 66.40625 
Q 24.171875 66.40625 20.328125 58.90625 
Q 16.5 51.421875 16.5 36.375 
Q 16.5 21.390625 20.328125 13.890625 
Q 24.171875 6.390625 31.78125 6.390625 
Q 39.453125 6.390625 43.28125 13.890625 
Q 47.125 21.390625 47.125 36.375 
Q 47.125 51.421875 43.28125 58.90625 
Q 39.453125 66.40625 31.78125 66.40625 
M 31.78125 74.21875 
Q 44.046875 74.21875 50.515625 64.515625 
Q 56.984375 54.828125 56.984375 36.375 
Q 56.984375 17.96875 50.515625 8.265625 
Q 44.046875 -1.421875 31.78125 -1.421875 
Q 19.53125 -1.421875 13.0625 8.265625 
Q 6.59375 17.96875 6.59375 36.375 
Q 6.59375 54.828125 13.0625 64.515625 
Q 19.53125 74.21875 31.78125 74.21875 
" id="BitstreamVeraSans-Roman-30"/>
      </defs>
      <g transform="translate(142.5290625 267.8784375)scale(0.1 -0.1)">
       <use xlink:href="#BitstreamVeraSans-Roman-30"/>
      </g>
     </g>
    </g>
    <g id="xtick_4">
     <g id="line2d_7">
      <g>
       <use style="stroke:#000000;stroke-width:0.5;" x="193.6103125" xlink:href="#m833504efca" y="256.28"/>
      </g>
     </g>
     <g id="line2d_8">
      <g>
       <use style="stroke:#000000;stroke-width:0.5;" x="193.6103125" xlink:href="#m53f567e5bd" y="7.2"/>
      </g>
     </g>
     <g id="text_4">
      <!-- 2 -->
      <g transform="translate(190.4290625 267.8784375)scale(0.1 -0.1)">
       <use xlink:href="#BitstreamVeraSans-Roman-32"/>
      </g>
     </g>
    </g>
    <g id="xtick_5">
     <g id="line2d_9">
      <g>
       <use style="stroke:#000000;stroke-width:0.5;" x="241.5103125" xlink:href="#m833504efca" y="256.28"/>
      </g>
     </g>
     <g id="line2d_10">
      <g>
       <use style="stroke:#000000;stroke-width:0.5;" x="241.5103125" xlink:href="#m53f567e5bd" y="7.2"/>
      </g>
     </g>
     <g id="text_5">
      <!-- 4 -->
      <g transform="translate(238.3290625 267.8784375)scale(0.1 -0.1)">
       <use xlink:href="#BitstreamVeraSans-Roman-34"/>
      </g>
     </g>
    </g>
    <g id="xtick_6">
     <g id="line2d_11">
      <defs>
       <path d="M 0 0 
L 0 -2 
" id="md2a2c8af18" style="stroke:#000000;stroke-width:0.5;"/>
      </defs>
      <g>
       <use style="stroke:#000000;stroke-width:0.5;" x="25.9603125" xlink:href="#md2a2c8af18" y="256.28"/>
      </g>
     </g>
     <g id="line2d_12">
      <defs>
       <path d="M 0 0 
L 0 2 
" id="ma27c36600f" style="stroke:#000000;stroke-width:0.5;"/>
      </defs>
      <g>
       <use style="stroke:#000000;stroke-width:0.5;" x="25.9603125" xlink:href="#ma27c36600f" y="7.2"/>
      </g>
     </g>
    </g>
    <g id="xtick_7">
     <g id="line2d_13">
      <g>
       <use style="stroke:#000000;stroke-width:0.5;" x="37.9353125" xlink:href="#md2a2c8af18" y="256.28"/>
      </g>
     </g>
     <g id="line2d_14">
      <g>
       <use style="stroke:#000000;stroke-width:0.5;" x="37.9353125" xlink:href="#ma27c36600f" y="7.2"/>
      </g>
     </g>
    </g>
    <g id="xtick_8">
     <g id="line2d_15">
      <g>
       <use style="stroke:#000000;stroke-width:0.5;" x="61.8853125" xlink:href="#md2a2c8af18" y="256.28"/>
      </g>
     </g>
     <g id="line2d_16">
      <g>
       <use style="stroke:#000000;stroke-width:0.5;" x="61.8853125" xlink:href="#ma27c36600f" y="7.2"/>
      </g>
     </g>
    </g>
    <g id="xtick_9">
     <g id="line2d_17">
      <g>
       <use style="stroke:#000000;stroke-width:0.5;" x="73.8603125" xlink:href="#md2a2c8af18" y="256.28"/>
      </g>
     </g>
     <g id="line2d_18">
      <g>
       <use style="stroke:#000000;stroke-width:0.5;" x="73.8603125" xlink:href="#ma27c36600f" y="7.2"/>
      </g>
     </g>
    </g>
    <g id="xtick_10">
     <g id="line2d_19">
      <g>
       <use style="stroke:#000000;stroke-width:0.5;" x="85.8353125" xlink:href="#md2a2c8af18" y="256.28"/>
      </g>
     </g>
     <g id="line2d_20">
      <g>
       <use style="stroke:#000000;stroke-width:0.5;" x="85.8353125" xlink:href="#ma27c36600f" y="7.2"/>
      </g>
     </g>
    </g>
    <g id="xtick_11">
     <g id="line2d_21">
      <g>
       <use style="stroke:#000000;stroke-width:0.5;" x="109.7853125" xlink:href="#md2a2c8af18" y="256.28"/>
      </g>
     </g>
     <g id="line2d_22">
      <g>
       <use style="stroke:#000000;stroke-width:0.5;" x="109.7853125" xlink:href="#ma27c36600f" y="7.2"/>
      </g>
     </g>
    </g>
    <g id="xtick_12">
     <g id="line2d_23">
      <g>
       <use style="stroke:#000000;stroke-width:0.5;" x="121.7603125" xlink:href="#md2a2c8af18" y="256.28"/>
      </g>
     </g>
     <g id="line2d_24">
      <g>
       <use style="stroke:#000000;stroke-width:0.5;" x="121.7603125" xlink:href="#ma27c36600f" y="7.2"/>
      </g>
     </g>
    </g>
    <g id="xtick_13">
     <g id="line2d_25">
      <g>
       <use style="stroke:#000000;stroke-width:0.5;" x="133.7353125" xlink:href="#md2a2c8af18" y="256.28"/>
      </g>
     </g>
     <g id="line2d_26">
      <g>
       <use style="stroke:#000000;stroke-width:0.5;" x="133.7353125" xlink:href="#ma27c36600f" y="7.2"/>
      </g>
     </g>
    </g>
    <g id="xtick_14">
     <g id="line2d_27">
      <g>
       <use style="stroke:#000000;stroke-width:0.5;" x="157.6853125" xlink:href="#md2a2c8af18" y="256.28"/>
      </g>
     </g>
     <g id="line2d_28">
      <g>
       <use style="stroke:#000000;stroke-width:0.5;" x="157.6853125" xlink:href="#ma27c36600f" y="7.2"/>
      </g>
     </g>
    </g>
    <g id="xtick_15">
     <g id="line2d_29">
      <g>
       <use style="stroke:#000000;stroke-width:0.5;" x="169.6603125" xlink:href="#md2a2c8af18" y="256.28"/>
      </g>
     </g>
     <g id="line2d_30">
      <g>
       <use style="stroke:#000000;stroke-width:0.5;" x="169.6603125" xlink:href="#ma27c36600f" y="7.2"/>
      </g>
     </g>
    </g>
    <g id="xtick_16">
     <g id="line2d_31">
      <g>
       <use style="stroke:#000000;stroke-width:0.5;" x="181.6353125" xlink:href="#md2a2c8af18" y="256.28"/>
      </g>
     </g>
     <g id="line2d_32">
      <g>
       <use style="stroke:#000000;stroke-width:0.5;" x="181.6353125" xlink:href="#ma27c36600f" y="7.2"/>
      </g>
     </g>
    </g>
    <g id="xtick_17">
     <g id="line2d_33">
      <g>
       <use style="stroke:#000000;stroke-width:0.5;" x="205.5853125" xlink:href="#md2a2c8af18" y="256.28"/>
      </g>
     </g>
     <g id="line2d_34">
      <g>
       <use style="stroke:#000000;stroke-width:0.5;" x="205.5853125" xlink:href="#ma27c36600f" y="7.2"/>
      </g>
     </g>
    </g>
    <g id="xtick_18">
     <g id="line2d_35">
      <g>
       <use style="stroke:#000000;stroke-width:0.5;" x="217.5603125" xlink:href="#md2a2c8af18" y="256.28"/>
      </g>
     </g>
     <g id="line2d_36">
      <g>
       <use style="stroke:#000000;stroke-width:0.5;" x="217.5603125" xlink:href="#ma27c36600f" y="7.2"/>
      </g>
     </g>
    </g>
    <g id="xtick_19">
     <g id="line2d_37">
      <g>
       <use style="stroke:#000000;stroke-width:0.5;" x="229.5353125" xlink:href="#md2a2c8af18" y="256.28"/>
      </g>
     </g>
     <g id="line2d_38">
      <g>
       <use style="stroke:#000000;stroke-width:0.5;" x="229.5353125" xlink:href="#ma27c36600f" y="7.2"/>
      </g>
     </g>
    </g>
    <g id="xtick_20">
     <g id="line2d_39">
      <g>
       <use style="stroke:#000000;stroke-width:0.5;" x="253.4853125" xlink:href="#md2a2c8af18" y="256.28"/>
      </g>
     </g>
     <g id="line2d_40">
      <g>
       <use style="stroke:#000000;stroke-width:0.5;" x="253.4853125" xlink:href="#ma27c36600f" y="7.2"/>
      </g>
     </g>
    </g>
    <g id="xtick_21">
     <g id="line2d_41">
      <g>
       <use style="stroke:#000000;stroke-width:0.5;" x="265.4603125" xlink:href="#md2a2c8af18" y="256.28"/>
      </g>
     </g>
     <g id="line2d_42">
      <g>
       <use style="stroke:#000000;stroke-width:0.5;" x="265.4603125" xlink:href="#ma27c36600f" y="7.2"/>
      </g>
     </g>
    </g>
   </g>
   <g id="matplotlib.axis_2">
    <g id="ytick_1">
     <g id="line2d_43">
      <defs>
       <path d="M 0 0 
L 4 0 
" id="mbbf3df33aa" style="stroke:#000000;stroke-width:0.5;"/>
      </defs>
      <g>
       <use style="stroke:#000000;stroke-width:0.5;" x="21.1703125" xlink:href="#mbbf3df33aa" y="227.54"/>
      </g>
     </g>
     <g id="line2d_44">
      <defs>
       <path d="M 0 0 
L -4 0 
" id="me08e25a5d9" style="stroke:#000000;stroke-width:0.5;"/>
      </defs>
      <g>
       <use style="stroke:#000000;stroke-width:0.5;" x="270.2503125" xlink:href="#me08e25a5d9" y="227.54"/>
      </g>
     </g>
     <g id="text_6">
      <!-- -4 -->
      <g transform="translate(7.2 230.299375)scale(0.1 -0.1)">
       <use xlink:href="#BitstreamVeraSans-Roman-2d"/>
       <use x="36.083984375" xlink:href="#BitstreamVeraSans-Roman-34"/>
      </g>
     </g>
    </g>
    <g id="ytick_2">
     <g id="line2d_45">
      <g>
       <use style="stroke:#000000;stroke-width:0.5;" x="21.1703125" xlink:href="#mbbf3df33aa" y="179.64"/>
      </g>
     </g>
     <g id="line2d_46">
      <g>
       <use style="stroke:#000000;stroke-width:0.5;" x="270.2503125" xlink:href="#me08e25a5d9" y="179.64"/>
      </g>
     </g>
     <g id="text_7">
      <!-- -2 -->
      <g transform="translate(7.2 182.399375)scale(0.1 -0.1)">
       <use xlink:href="#BitstreamVeraSans-Roman-2d"/>
       <use x="36.083984375" xlink:href="#BitstreamVeraSans-Roman-32"/>
      </g>
     </g>
    </g>
    <g id="ytick_3">
     <g id="line2d_47">
      <g>
       <use style="stroke:#000000;stroke-width:0.5;" x="21.1703125" xlink:href="#mbbf3df33aa" y="131.74"/>
      </g>
     </g>
     <g id="line2d_48">
      <g>
       <use style="stroke:#000000;stroke-width:0.5;" x="270.2503125" xlink:href="#me08e25a5d9" y="131.74"/>
      </g>
     </g>
     <g id="text_8">
      <!-- 0 -->
      <g transform="translate(10.8078125 134.499375)scale(0.1 -0.1)">
       <use xlink:href="#BitstreamVeraSans-Roman-30"/>
      </g>
     </g>
    </g>
    <g id="ytick_4">
     <g id="line2d_49">
      <g>
       <use style="stroke:#000000;stroke-width:0.5;" x="21.1703125" xlink:href="#mbbf3df33aa" y="83.84"/>
      </g>
     </g>
     <g id="line2d_50">
      <g>
       <use style="stroke:#000000;stroke-width:0.5;" x="270.2503125" xlink:href="#me08e25a5d9" y="83.84"/>
      </g>
     </g>
     <g id="text_9">
      <!-- 2 -->
      <g transform="translate(10.8078125 86.599375)scale(0.1 -0.1)">
       <use xlink:href="#BitstreamVeraSans-Roman-32"/>
      </g>
     </g>
    </g>
    <g id="ytick_5">
     <g id="line2d_51">
      <g>
       <use style="stroke:#000000;stroke-width:0.5;" x="21.1703125" xlink:href="#mbbf3df33aa" y="35.94"/>
      </g>
     </g>
     <g id="line2d_52">
      <g>
       <use style="stroke:#000000;stroke-width:0.5;" x="270.2503125" xlink:href="#me08e25a5d9" y="35.94"/>
      </g>
     </g>
     <g id="text_10">
      <!-- 4 -->
      <g transform="translate(10.8078125 38.699375)scale(0.1 -0.1)">
       <use xlink:href="#BitstreamVeraSans-Roman-34"/>
      </g>
     </g>
    </g>
    <g id="ytick_6">
     <g id="line2d_53">
      <defs>
       <path d="M 0 0 
L 2 0 
" id="mf433a33bf8" style="stroke:#000000;stroke-width:0.5;"/>
      </defs>
      <g>
       <use style="stroke:#000000;stroke-width:0.5;" x="21.1703125" xlink:href="#mf433a33bf8" y="251.49"/>
      </g>
     </g>
     <g id="line2d_54">
      <defs>
       <path d="M 0 0 
L -2 0 
" id="m4616c82293" style="stroke:#000000;stroke-width:0.5;"/>
      </defs>
      <g>
       <use style="stroke:#000000;stroke-width:0.5;" x="270.2503125" xlink:href="#m4616c82293" y="251.49"/>
      </g>
     </g>
    </g>
    <g id="ytick_7">
     <g id="line2d_55">
      <g>
       <use style="stroke:#000000;stroke-width:0.5;" x="21.1703125" xlink:href="#mf433a33bf8" y="239.515"/>
      </g>
     </g>
     <g id="line2d_56">
      <g>
       <use style="stroke:#000000;stroke-width:0.5;" x="270.2503125" xlink:href="#m4616c82293" y="239.515"/>
      </g>
     </g>
    </g>
    <g id="ytick_8">
     <g id="line2d_57">
      <g>
       <use style="stroke:#000000;stroke-width:0.5;" x="21.1703125" xlink:href="#mf433a33bf8" y="215.565"/>
      </g>
     </g>
     <g id="line2d_58">
      <g>
       <use style="stroke:#000000;stroke-width:0.5;" x="270.2503125" xlink:href="#m4616c82293" y="215.565"/>
      </g>
     </g>
    </g>
    <g id="ytick_9">
     <g id="line2d_59">
      <g>
       <use style="stroke:#000000;stroke-width:0.5;" x="21.1703125" xlink:href="#mf433a33bf8" y="203.59"/>
      </g>
     </g>
     <g id="line2d_60">
      <g>
       <use style="stroke:#000000;stroke-width:0.5;" x="270.2503125" xlink:href="#m4616c82293" y="203.59"/>
      </g>
     </g>
    </g>
    <g id="ytick_10">
     <g id="line2d_61">
      <g>
       <use style="stroke:#000000;stroke-width:0.5;" x="21.1703125" xlink:href="#mf433a33bf8" y="191.615"/>
      </g>
     </g>
     <g id="line2d_62">
      <g>
       <use style="stroke:#000000;stroke-width:0.5;" x="270.2503125" xlink:href="#m4616c82293" y="191.615"/>
      </g>
     </g>
    </g>
    <g id="ytick_11">
     <g id="line2d_63">
      <g>
       <use style="stroke:#000000;stroke-width:0.5;" x="21.1703125" xlink:href="#mf433a33bf8" y="167.665"/>
      </g>
     </g>
     <g id="line2d_64">
      <g>
       <use style="stroke:#000000;stroke-width:0.5;" x="270.2503125" xlink:href="#m4616c82293" y="167.665"/>
      </g>
     </g>
    </g>
    <g id="ytick_12">
     <g id="line2d_65">
      <g>
       <use style="stroke:#000000;stroke-width:0.5;" x="21.1703125" xlink:href="#mf433a33bf8" y="155.69"/>
      </g>
     </g>
     <g id="line2d_66">
      <g>
       <use style="stroke:#000000;stroke-width:0.5;" x="270.2503125" xlink:href="#m4616c82293" y="155.69"/>
      </g>
     </g>
    </g>
    <g id="ytick_13">
     <g id="line2d_67">
      <g>
       <use style="stroke:#000000;stroke-width:0.5;" x="21.1703125" xlink:href="#mf433a33bf8" y="143.715"/>
      </g>
     </g>
     <g id="line2d_68">
      <g>
       <use style="stroke:#000000;stroke-width:0.5;" x="270.2503125" xlink:href="#m4616c82293" y="143.715"/>
      </g>
     </g>
    </g>
    <g id="ytick_14">
     <g id="line2d_69">
      <g>
       <use style="stroke:#000000;stroke-width:0.5;" x="21.1703125" xlink:href="#mf433a33bf8" y="119.765"/>
      </g>
     </g>
     <g id="line2d_70">
      <g>
       <use style="stroke:#000000;stroke-width:0.5;" x="270.2503125" xlink:href="#m4616c82293" y="119.765"/>
      </g>
     </g>
    </g>
    <g id="ytick_15">
     <g id="line2d_71">
      <g>
       <use style="stroke:#000000;stroke-width:0.5;" x="21.1703125" xlink:href="#mf433a33bf8" y="107.79"/>
      </g>
     </g>
     <g id="line2d_72">
      <g>
       <use style="stroke:#000000;stroke-width:0.5;" x="270.2503125" xlink:href="#m4616c82293" y="107.79"/>
      </g>
     </g>
    </g>
    <g id="ytick_16">
     <g id="line2d_73">
      <g>
       <use style="stroke:#000000;stroke-width:0.5;" x="21.1703125" xlink:href="#mf433a33bf8" y="95.815"/>
      </g>
     </g>
     <g id="line2d_74">
      <g>
       <use style="stroke:#000000;stroke-width:0.5;" x="270.2503125" xlink:href="#m4616c82293" y="95.815"/>
      </g>
     </g>
    </g>
    <g id="ytick_17">
     <g id="line2d_75">
      <g>
       <use style="stroke:#000000;stroke-width:0.5;" x="21.1703125" xlink:href="#mf433a33bf8" y="71.865"/>
      </g>
     </g>
     <g id="line2d_76">
      <g>
       <use style="stroke:#000000;stroke-width:0.5;" x="270.2503125" xlink:href="#m4616c82293" y="71.865"/>
      </g>
     </g>
    </g>
    <g id="ytick_18">
     <g id="line2d_77">
      <g>
       <use style="stroke:#000000;stroke-width:0.5;" x="21.1703125" xlink:href="#mf433a33bf8" y="59.89"/>
      </g>
     </g>
     <g id="line2d_78">
      <g>
       <use style="stroke:#000000;stroke-width:0.5;" x="270.2503125" xlink:href="#m4616c82293" y="59.89"/>
      </g>
     </g>
    </g>
    <g id="ytick_19">
     <g id="line2d_79">
      <g>
       <use style="stroke:#000000;stroke-width:0.5;" x="21.1703125" xlink:href="#mf433a33bf8" y="47.915"/>
      </g>
     </g>
     <g id="line2d_80">
      <g>
       <use style="stroke:#000000;stroke-width:0.5;" x="270.2503125" xlink:href="#m4616c82293" y="47.915"/>
      </g>
     </g>
    </g>
    <g id="ytick_20">
     <g id="line2d_81">
      <g>
       <use style="stroke:#000000;stroke-width:0.5;" x="21.1703125" xlink:href="#mf433a33bf8" y="23.965"/>
      </g>
     </g>
     <g id="line2d_82">
      <g>
       <use style="stroke:#000000;stroke-width:0.5;" x="270.2503125" xlink:href="#m4616c82293" y="23.965"/>
      </g>
     </g>
    </g>
    <g id="ytick_21">
     <g id="line2d_83">
      <g>
       <use style="stroke:#000000;stroke-width:0.5;" x="21.1703125" xlink:href="#mf433a33bf8" y="11.99"/>
      </g>
     </g>
     <g id="line2d_84">
      <g>
       <use style="stroke:#000000;stroke-width:0.5;" x="270.2503125" xlink:href="#m4616c82293" y="11.99"/>
      </g>
     </g>
    </g>
   </g>
  </g>
 </g>
 <defs>
  <clipPath id="p16e2f8351d">
   <rect height="249.08" width="249.08" x="21.1703125" y="7.2"/>
  </clipPath>
 </defs>
</svg>
